<svg xmlns="http://www.w3.org/2000/svg" viewBox="0 0 410 404" fill="none">
  <path d="M399.641 59.524L215.643 388.545c-3.516 6.287-12.544 6.325-16.112.068L10.881 59.565c-3.883-6.778 1.924-15.082 9.561-13.693l184.617 33.607a9.75 9.75 0 003.508 0l180.47-33.57c7.62-1.417 13.45 6.84 9.604 13.615z" fill="url(#paint0_linear)"/>
  <path d="M292.965.827L156.977 27.474a4.875 4.875 0 00-3.947 4.587l-8.385 141.47a4.875 4.875 0 005.824 5.08l37.858-8.73a4.875 4.875 0 015.862 5.73l-11.243 55.08a4.875 4.875 0 005.963 5.726l23.386-5.395a4.875 4.875 0 015.905 5.887l-17.872 87.3c-1.118 5.462 6.153 8.44 9.188 3.762L211.58 39.205a4.875 4.875 0 00-5.172-7.375l-24.17 4.661a4.875 4.875 0 01-5.615-5.174l15.778-91.26c.945-5.468-6.166-8.372-9.2-3.755z" fill="url(#paint1_linear)"/>
  <defs>
    <linearGradient id="paint0_linear" x1="6" y1="32" x2="235" y2="344" gradientUnits="userSpaceOnUse">
      <stop stop-color="#41D1FF"/>
      <stop offset="1" stop-color="#BD34FE"/>
    </linearGradient>
    <linearGradient id="paint1_linear" x1="194" y1="8" x2="236" y2="292" gradientUnits="userSpaceOnUse">
      <stop stop-color="#FFEA83"/>
      <stop offset=".083" stop-color="#FFDD35"/>
      <stop offset="1" stop-color="#FFA800"/>
    </linearGradient>
  </defs>
</svg>
